<?xml version="1.0" standalone="no"?>
<!DOCTYPE svg PUBLIC "-//W3C//DTD SVG 20010904//EN"
 "http://www.w3.org/TR/2001/REC-SVG-20010904/DTD/svg10.dtd">
<svg version="1.0" xmlns="http://www.w3.org/2000/svg"
 width="336.000000pt" height="336.000000pt" viewBox="0 0 336.000000 336.000000"
 preserveAspectRatio="xMidYMid meet">
<metadata>
Created by potrace 1.14, written by Peter Selinger 2001-2017
</metadata>
<g transform="translate(0.000000,336.000000) scale(0.100000,-0.100000)"
fill="#000000" stroke="none">
<path d="M1445 3255 c-133 -20 -352 -85 -390 -114 -5 -5 -27 -14 -47 -20 -48
-16 -225 -122 -308 -185 -82 -62 -241 -221 -303 -303 -147 -193 -254 -427
-309 -676 -20 -90 -23 -130 -22 -332 0 -202 3 -241 22 -320 12 -49 25 -102 28
-117 8 -40 57 -172 97 -259 42 -91 144 -259 158 -259 5 0 9 -5 9 -11 0 -32
183 -226 295 -314 158 -123 293 -198 475 -263 215 -77 272 -85 587 -80 243 4
264 6 357 32 55 15 104 30 110 34 6 4 13 7 16 7 23 3 129 45 193 77 184 91
289 168 442 323 107 108 198 224 246 315 13 25 27 47 31 50 13 10 85 174 116
265 63 183 77 284 77 545 -1 225 -16 324 -76 501 -52 154 -171 384 -236 454
-10 11 -26 32 -35 46 -32 50 -183 202 -263 264 -250 195 -493 299 -810 345
-91 14 -358 11 -460 -5z m418 -1010 c72 -19 169 -67 210 -105 18 -16 44 -39
58 -50 43 -32 118 -150 145 -229 81 -234 21 -507 -148 -667 -39 -37 -142 -114
-152 -114 -3 0 -17 -5 -33 -12 -15 -6 -32 -12 -38 -13 -5 -2 -30 -8 -54 -15
-64 -17 -211 -14 -278 5 -214 62 -377 233 -428 447 -19 81 -19 225 0 306 50
213 221 391 428 447 69 18 219 19 290 0z"/>
</g>
</svg>
